<mxfile host="app.diagrams.net" modified="2024-05-12T16:06:24.326Z" agent="Mozilla/5.0 (Windows NT 10.0; Win64; x64) AppleWebKit/537.36 (KHTML, like Gecko) Chrome/124.0.0.0 Safari/537.36" etag="4rnY8Uj-keVWp3qIqaVQ" version="24.4.0" type="device">
  <diagram name="Trang-1" id="wiVOsLggPC2GD6rUm_Qx">
    <mxGraphModel dx="1049" dy="570" grid="1" gridSize="10" guides="1" tooltips="1" connect="1" arrows="1" fold="1" page="1" pageScale="1" pageWidth="827" pageHeight="1169" math="0" shadow="0">
      <root>
        <mxCell id="0" />
        <mxCell id="1" parent="0" />
        <mxCell id="V_ViY8afsEqnoXQ-QSTU-1" value="Actor" style="shape=umlActor;verticalLabelPosition=bottom;verticalAlign=top;html=1;outlineConnect=0;" vertex="1" parent="1">
          <mxGeometry x="210" y="70" width="30" height="60" as="geometry" />
        </mxCell>
        <mxCell id="V_ViY8afsEqnoXQ-QSTU-2" value="" style="shape=tapeData;whiteSpace=wrap;html=1;perimeter=ellipsePerimeter;" vertex="1" parent="1">
          <mxGeometry x="374" y="70" width="80" height="80" as="geometry" />
        </mxCell>
      </root>
    </mxGraphModel>
  </diagram>
</mxfile>
